# xmcd
#
# Track frame offsets: 
#        150
#        15900
#        26651
#        39123
#        51656
#        65910
#        86289
#        104568
#        116574
#        135440
#
# Disc length: 2097 seconds
#
# Revision: 0
# Processed by: cddbd v1.5.2PL0 Copyright (c) Steve Scherf et al.
# Submitted via: ExactAudioCopy v0.99pb5
#
DISCID=7e082f0a
DTITLE=Jumpin' Dukes - Big Pile Of Too Many Shoes
DYEAR=2007
DGENRE=Blues
TTITLE0=She's Dynamite
TTITLE1=Kill That Cat
TTITLE2=I'm Looking Sharp
TTITLE3=Big Pile Of Too Many Shoes
TTITLE4=If I Had A Genie
TTITLE5=Chicken Feet
TTITLE6=Queen Of Complication
TTITLE7=I've Been Fooled Before
TTITLE8=Dukes' Jump
TTITLE9=Make Up Your Mind
EXTD=
EXTT0=
EXTT1=
EXTT2=
EXTT3=
EXTT4=
EXTT5=
EXTT6=
EXTT7=
EXTT8=
EXTT9=
PLAYORDER=
